Coordinates
version=1
nRows=9
nColumns=36
inDegrees=yes

Units are S.I. units (second, meters, Newtons, ...)
If the header above contains a line with 'inDegrees', this indicates whether rotational values are in degrees (yes) or radians (no).

endheader
time	pelvis_tilt	pelvis_list	pelvis_rotation	pelvis_tx	pelvis_ty	pelvis_tz	hip_flexion_r	hip_adduction_r	hip_rotation_r	knee_angle_r	knee_angle_r_beta	ankle_angle_r	subtalar_angle_r	mtp_angle_r	hip_flexion_l	hip_adduction_l	hip_rotation_l	knee_angle_l	knee_angle_l_beta	ankle_angle_l	subtalar_angle_l	mtp_angle_l	lumbar_extension	lumbar_bending	lumbar_rotation	arm_flex_r	arm_add_r	arm_rot_r	elbow_flex_r	pro_sup_r	arm_flex_l	arm_add_l	arm_rot_l	elbow_flex_l	pro_sup_l
      4.93333330	    -29.50957059	      2.21546290	     -7.72007305	      0.73893451	      0.80933106	      0.35998719	     63.47289370	      7.09423295	     -6.95495183	     61.71055116	      1.07705230	     27.23415800	     -2.83154114	     -7.49999987	     82.01868413	     -4.04736015	      7.61172705	     22.16870134	      0.38691683	     -5.17422867	     10.41572231	     -7.49999987	     -8.50071494	     11.28331338	      4.75438812	     68.63148061	     -9.86012395	     89.83292786	    119.59264213	     95.07412657	     47.99148125	      3.36708821	     62.21692619	    118.74812845	    111.02423995
      4.95000000	    -28.09695991	      1.97686477	     -7.01670829	      0.74518832	      0.81629721	      0.36335714	     60.63242675	      7.19765112	     -6.33491613	     59.74239841	      1.04270156	     26.23569328	     -4.17398783	     -7.49999987	     80.17592397	     -3.22493305	      7.76099961	     23.21255476	      0.40513551	     -4.54270558	      9.22016182	     -7.49999987	     -9.30100457	     10.75635411	      3.76745594	     66.95746574	     -8.79588497	     89.66318298	    120.08700520	    104.21120042	     46.58164710	      3.56525419	     62.67342373	    119.68613544	    112.25271871
      4.96666670	    -26.97175993	      1.91129074	     -6.42392055	      0.74520099	      0.82444687	      0.36317643	     58.47344853	      7.18972518	     -5.81906278	     58.09257702	      1.01390674	     25.15286324	     -5.39886700	     -7.49999987	     78.81516739	     -2.43979970	      7.64658931	     24.30884601	      0.42426940	     -4.09631598	      8.17597632	     -7.49999987	     -9.45526681	     10.04901602	      3.08693487	     66.12608418	     -8.40346441	     88.23590629	    120.42433309	    104.21362138	     46.74199895	      3.86549734	     62.89186009	    119.29771497	    112.26490541
      4.98333330	    -25.52359112	      1.75866278	     -5.85279073	      0.75107943	      0.83832963	      0.36620456	     55.45574036	      7.30960880	     -5.26022989	     55.75766143	      0.97315478	     23.43913102	     -7.15090218	     -7.49999987	     76.65429811	     -1.63765902	      7.74382451	     25.11396984	      0.43832146	     -3.73762695	      7.02755386	     -7.49999987	    -10.25721323	      9.45675170	      2.66210520	     65.06114834	     -8.56789690	     87.58570606	    119.86333815	    102.65359269	     46.04230870	      3.89974813	     62.82879656	    118.52404413	    111.88451559
      5.00000000	    -24.23020369	      1.70034071	     -5.30789984	      0.75160217	      0.84863054	      0.36590312	     52.72387176	      7.23154339	     -4.79826796	     53.44751197	      0.93283506	     21.31195183	     -8.87735398	     -7.49999987	     74.56831781	     -0.84905723	      7.66707481	     25.44990624	      0.44418466	     -3.47862483	      6.06704090	     -7.49999987	    -11.15420442	      8.92198141	      1.98855293	     64.37592417	     -8.48891501	     86.34771290	    119.68270638	    102.98277047	     46.89530349	      3.52374468	     63.26497854	    119.13597979	    111.88019542
      5.01666670	    -23.15010013	      1.56757739	     -4.77808073	      0.75171782	      0.85661679	      0.36589097	     50.23363080	      7.13554586	     -4.57195947	     50.95622522	      0.88935390	     19.09991768	    -10.28624121	     -7.49999987	     72.81544495	     -0.14644585	      7.63397529	     26.01516546	      0.45405029	     -3.20234678	      5.30404033	     -7.49999987	    -11.76317571	      8.62711847	      1.44493738	     64.27900542	     -8.29276849	     85.43727607	    121.06139178	    103.19164363	     48.16051782	      3.33671638	     64.09411428	    119.96538305	    111.79099456
      5.03333330	    -21.44021601	      1.39360058	     -4.31696335	      0.75246036	      0.87391775	      0.36649182	     46.52702648	      7.05258124	     -4.29781984	     47.34052186	      0.82624798	     16.24078186	    -11.49102186	     -7.49999987	     70.19173326	      0.36873656	      7.63715385	     26.09223447	      0.45539540	     -3.31470175	      4.42190003	     -7.49999987	    -13.08031647	      8.27671651	      0.88200456	     63.66166174	     -8.54153055	     84.60552262	    120.70278843	    102.77606665	     48.84641351	      2.68076623	     65.58297415	    119.26677181	    111.76928433
      5.05000000	    -20.29672482	      1.08623157	     -3.90577470	      0.75294105	      0.87978485	      0.36657603	     43.58718817	      7.14576817	     -4.17737943	     44.04090759	      0.76865884	     13.88307827	    -12.16895028	     -7.49999987	     68.42713595	      0.66251354	      7.82175347	     26.78018078	      0.46740233	     -3.14782109	      3.54508784	     -7.49999987	    -13.43717667	      8.06997643	      0.49974617	     63.26020041	     -8.43684817	     83.49543578	    121.24892871	    103.03325635	     49.94632595	      3.18958568	     65.77802848	    119.98364631	    111.54167720
      5.06666670	    -19.47083373	      1.05070998	     -3.68153620	      0.75279883	      0.88928851	      0.36614527	     41.60203703	      6.99728070	     -4.16168047	     41.61515566	      0.72632148	     11.63281388	    -12.70786265	     -7.49999987	     67.18058524	      0.87790494	      7.67662487	     27.67812791	      0.48307446	     -2.85489308	      2.97505388	     -7.49999987	    -13.93830809	      7.69062411	      0.37749230	     63.67121614	     -8.39654363	     82.93523886	    122.48525688	    103.13252869	     51.16407845	      3.07589191	     66.27385828	    120.28178262	    111.21535725
